<svg height="493" viewBox="0 0 485 493" width="485" xmlns="http://www.w3.org/2000/svg" xmlns:xlink="http://www.w3.org/1999/xlink"><filter id="a" height="111.9%" width="112.1%" x="-5.6%" y="-5.1%"><feOffset dx="2" dy="4" in="SourceAlpha" result="shadowOffsetOuter1"/><feGaussianBlur in="shadowOffsetOuter1" result="shadowBlurOuter1" stdDeviation="5"/><feColorMatrix in="shadowBlurOuter1" result="shadowMatrixOuter1" type="matrix" values="0 0 0 0 0   0 0 0 0 0   0 0 0 0 0  0 0 0 0.5 0"/><feMerge><feMergeNode in="shadowMatrixOuter1"/><feMergeNode in="SourceGraphic"/></feMerge></filter><g fill="none" fill-rule="evenodd" filter="url(#a)" transform="translate(18 16)"><ellipse cx="222.653409" cy="226.147611" fill="#a6d6d8" fill-rule="evenodd" rx="222.1875" ry="226.147611"/><ellipse cx="222.653409" cy="226.147611" rx="227.1875" ry="231.147611" stroke="#e43894" stroke-width="10"/><ellipse cx="222.653409" cy="226.147611" rx="219.6875" ry="223.647611" stroke="#2b2b2b" stroke-width="5"/><g transform="translate(58 37)"><path d="m100.473947.35056585c50.761766-.2365156 101.547386-.78050149 152.309152.28381872-.047709 7.37928677 0 14.78222513.119271 22.16151183 8.301266.0946063 16.626386.1419094 24.927653.1892125.095417 7.8286664.143125 15.6573328.214688 23.4859992 8.396683.0709547 16.769512.1419094 25.166195.2128641-.310105 15.5863781-.214688 31.1727562.047708 46.7827859 8.325121.0946063 16.650241.165561 24.951507.2128641.524793 23.6988628.405522 47.3977268.071563 71.0729378-8.277412.118258-16.578678.189213-24.85609.212864-.16698 7.710409-.310105 15.397166-.429376 23.107575-8.301266.118258-16.602533.260167-24.903799.402076 0 7.473893-.047708 14.971438-.143125 22.445331 8.396683.118258 16.81722.236515 25.213903.354773-.190833 31.551181-.214688 63.102363.047709 94.653544-8.396683.189212-16.769512.378425-25.166195.473031-.047709 7.615802-.071563 15.207953-.095417 22.823756-8.563663.141909-17.103471.331121-25.64328.638592 0 7.73406-.071562 15.444469-.214687 23.178529-8.277413 0-16.554825.023651-24.808382.047303.047708 7.615802.143125 15.207953.333959 22.823755-33.801421-.023651-67.626695.307471-101.428115-.165561-.023855-7.686757-.047709-15.397165-.023855-23.083922 33.539024-.165561 67.101902-.094606 100.640926-.047303.023855-7.828667.047709-15.633682.119271-23.462348-16.912637-.141909-33.80142-.165561-50.690203-.094606.071563-7.852318.071563-15.728288 0-23.580606-16.36399-.023651-32.727981.023652-49.091971-.047303-2.027608-15.302559-1.311982-30.77068-.834897-46.144194-8.587517-.212864-17.15118-.402076-25.738697-.638592-.023854-7.639454-.047708-15.278908-.071562-22.942013-8.468246-.070955-16.9126375-.118258-25.3808832-.212864.0715626-7.592151.1192711-15.184302.2146879-22.752801-8.3489747-.44938-16.6979493-.780502-25.046924-1.158927-.45323-23.415044-.2385421-46.830089-.0715626-70.221482-8.4921-.070954-17.0080541-.16556-25.5240083-.260167-.2385421-7.73406-.3816674-15.46812-.5247927-23.20218-8.0627241 0-16.10159399-.14191-24.1643181-.331122.07156264-7.923273.11927107-15.822894.16697949-23.7225149 7.84803619-.1182578 15.81534341.1655609 23.54410861-1.3008358 1.1450022-7.3556352 1.0495853-14.8295282 1.3119817-22.2324665 8.1819952-.0473032 16.3401361-.1182578 24.5221313-.1892125.1192711-7.8286664.1669795-15.6573328.0715626-23.4859992 8.5398084-.0236516 17.0557626 0 25.5955709 0 .1192711 7.8050148.1908338 15.5863781.214688 23.3677414-.0477085 7.9232726-.0715627 15.8465453-.1431253 23.7698179-16.769512.0236516-33.5628782.0709547-50.3562444.0236516-.0238542 7.852318-.1908337 15.680984-.4293758 23.509651 16.888783.047303 33.8014203.070954 50.6902033 0 .1192711 7.828666.1908337 15.657333.214688 23.509651-.0954169 23.438696.0238542 46.877392-.1192711 70.316088 8.3966831.118258 16.769512.260167 25.1661947.520334.047709 7.710409.095417 15.444469.214688 23.178529 33.634441-.070955 67.268882-.023651 100.903323-.023651.071562-7.805015.119271-15.61003.190833-23.415045 16.769512-.165561 33.539024-.212864 50.332391-.094606.023854-15.61003.047708-31.22006-.047709-46.830089-16.769512.047303-33.562878.047303-50.33239 0-.047708 7.781363-.071563 15.539075-.119271 23.320438-8.372829.165561-16.745658.236516-25.118487.260167-.190833-15.680984-.214688-31.38562-.023854-47.090256-8.515954-.023652-17.055762 0-25.571717 0 .119271-7.852318.286251-15.704636.477085-23.533302 33.491315-.118258 67.006485.236515 100.4978-.165561.16698-7.757712.262397-15.491772.357814-23.2258324 8.348974-.1655609 16.674095-.3074703 25.023069-.4966828.143126-15.539075.047709-31.07815-.190833-46.617225-8.062724-.1655609-16.101594-.3311219-24.140464-.5439859-.286251-7.6867571-.45323-15.3971657-.572501-23.1075743-50.570933-.4020765-101.165719.2838187-151.736651-.3547734 0-7.5211961-.047709-15.04239223-.119271-22.56358835m151.736651 211.23208315c-.071563 7.734061-.190834 15.468121-.333959 23.178529-8.396683 0-16.793367.047304-25.19005.118258.262397 7.781364.381668 15.586378.405522 23.391393 8.301266.047303 16.602532.118258 24.879944.236516.190834 15.680984.310105 31.361969.047709 47.019301 8.372829-.094606 16.721803-.118257 25.094632-.070954.262397-31.338317.143126-62.676635.071563-93.9913-8.325121 0-16.650241.070954-24.975361.118257m-75.760982 46.853741c-.190834 15.704636-.166979 31.409272.023854 47.13756 16.793366-.165561 33.610587-.118258 50.403953-.070955-.071563-15.704636-.071563-31.409272 0-47.113908-16.81722.023652-33.610587-.070955-50.427807.047303m-101.2611356-235.5222358c8.4682458.0236516 16.9364915 0 25.4047376 0-.119271 7.852318-.16698 15.704636-.190834 23.5333024-8.3966832.0946062-16.7933663.1419093-25.1900494.1892125-.0238542-7.8996211-.0238542-15.7992422-.0238542-23.7225149m25.4285916 118.0922398c8.32512 0 16.650241 0 24.951507-.023652.405522 15.680985.286251 31.385621.143125 47.066605-8.396683-.070955-16.769512-.070955-25.142341 0-.071562-15.680984-.143125-31.361969.047709-47.042953m0 164.425646c8.253558.023652 16.507115.023652 24.760673 0 .739481 15.9175.357813 31.882303.500939 47.823455-8.396683-.14191-16.793366-.189213-25.19005-.189213-.429375-15.870197-.429375-31.764045-.071562-47.634242" fill="#2b2b2b"/><path d="m100.798267 24.5220301c50.539957.6482892 101.103753-.0480214 151.64371.3601607.119198 7.8274918.286075 15.6549836.57215 23.4584647 8.033946.2160964 16.067892.3841714 24.125678.5522464.238396 15.7750372.333754 31.5500744.190717 47.3251116-8.343861.1920857-16.663882.3361499-25.007743.5042249-.095359 7.8515026-.190717 15.7030046-.357594 23.5785186-33.470802.408182-66.965443.048021-100.436244.168075-.190717 7.947545-.357594 15.919101-.476792 23.890657-8.439219.024011-16.854599.024011-25.293818.024011-8.296182.024011-16.616203.024011-24.936224.024011-8.3915401-.024011-16.8069197-.072032-25.1984597-.192086-.0238396-7.971556-.0953584-15.919101-.2145564-23.866647 16.8069196-.048021 33.6138391-.024011 50.4207591-.144064-.02384-7.851503-.071519-15.703005-.143038-23.5545077-8.296182-.0480214-16.592363-.1200536-24.888545-.2160964-.119198-7.899524-.190717-15.8230586-.262235-23.7225826-8.2961819-.0480214-16.5923635-.1440643-24.8885451-.3841714-.0238396-7.8995239-.0953584-15.7990479-.2145564-23.7225825 8.39154-.0480215 16.78308-.0960429 25.1746195-.1920857.02384-7.9475454.071519-15.9191015.190717-23.8906576" fill="#c0362e"/><path d="m99.6090469 71.2217053c.0711265 7.8196096.142253 15.6629869.2607972 23.4825965 8.2506769.0950712 16.5013549.1663747 24.7520319.2139103.071126 7.7720739.118544 15.5441479.142253 23.3162219-16.714734.118839-33.4294682.095071-50.1442022.142607-16.7858605.071303-33.5954299.047535-50.3812904 0 .2370884-7.867145.4030503-15.734291.4267591-23.6252036 16.6910252.0475356 33.3820504 0 50.0493667-.0237678.0711265-7.9622164.0948354-15.9244328.142253-23.8866493 8.2506772.2376781 16.5013545.3327494 24.7520317.380285zm-24.7757405 70.7805387c8.3455126.118839 16.714734.166375 25.0602466.190143-.1896708 15.758058-.1185442 31.516116-.0474177 47.274174 8.3218037-.071303 16.6436077-.071303 24.9891197 0 .142253-15.758058.260798-31.539884-.142253-47.297942 8.392931 0 16.762152 0 25.155082-.023768 8.464057 0 16.951823-.023768 25.415879 0-.18967 15.781826-.165961 31.563652.023709 47.32171 8.321804-.023768 16.643608-.095071 24.965412-.261446.047417-7.819609.071126-15.615451.118544-23.435061 16.667316.047536 33.358341.047536 50.025658 0 .094835 15.686755.071126 31.37351.047417 47.060264-16.691025-.118839-33.358341-.071303-50.025658.095072-.071126 7.843377-.118544 15.686754-.18967 23.530132-33.429468 0-66.858936-.047536-100.2884043.023768-.1185442-7.772074-.1659619-15.544148-.2133796-23.292454-8.3455126-.261446-16.6673163-.404053-25.0128289-.522892.142253-23.5539.0237088-47.1078.1185442-70.6617m100.4306566 118.19732c16.714734-.118839 33.40576-.023768 50.120494-.047535-.071127 15.781826-.071127 31.563652 0 47.345477-16.691025-.047535-33.40576-.095071-50.096785.071304-.18967-15.805594-.213379-31.58742-.023709-47.369246m-50.760631 47.226639h1.754454c16.264266.071303 32.528532.023768 48.792798.047536.071126 7.890913.071126 15.805593 0 23.696506 16.78586-.071303 33.571721-.047535 50.38129.095072-.071126 7.867145-.094835 15.710522-.118544 23.577667-33.334633-.047535-66.692974-.118839-100.027607.047536-.023708 7.724538 0 15.472844.023709 23.197383 33.59543.475356 67.214569.142607 100.809999.166374-33.690265.831874-67.40424.33275-101.118214.261446.047418-7.677002.047418-15.354005 0-23.031008-.142253-16.019504.237089-32.062776-.497885-48.058512" fill="#fff"/></g></g></svg>